<?xml version="1.0" encoding="UTF-8" standalone="no"?>
<!DOCTYPE svg PUBLIC "-//W3C//DTD SVG 1.1//EN" "http://www.w3.org/Graphics/SVG/1.1/DTD/svg11.dtd">
<!-- 由 Microsoft Visio, SVG Export 生成 genas.svg 页-1 -->
<svg xmlns="http://www.w3.org/2000/svg" xmlns:xlink="http://www.w3.org/1999/xlink" xmlns:ev="http://www.w3.org/2001/xml-events"
		xmlns:v="http://schemas.microsoft.com/visio/2003/SVGExtensions/" width="10.1497in" height="9.68712in"
		viewBox="0 0 730.781 697.473" xml:space="preserve" color-interpolation-filters="sRGB" class="st36">
	<v:documentProperties v:langID="2052" v:metric="true" v:viewMarkup="false"/>

	<style type="text/css">
	<![CDATA[
		.st1 {visibility:visible}
		.st2 {fill:#5b9bd5;fill-opacity:0.25;filter:url(#filter_2);stroke:#5b9bd5;stroke-opacity:0.25}
		.st3 {fill:#dbeef3;stroke:#4bacc6;stroke-width:2.25}
		.st4 {fill:#5b9bd5;fill-opacity:0.22;filter:url(#filter_2);stroke:#5b9bd5;stroke-opacity:0.22}
		.st5 {fill:#c4d6a0;stroke:#000000;stroke-width:2.25}
		.st6 {fill:#000000;font-family:Times New Roman;font-size:1.33333em}
		.st7 {fill:#92cddc;stroke:#000000;stroke-width:2.25}
		.st8 {fill:#000000;font-family:Times New Roman;font-size:1.5em}
		.st9 {fill:#ffd965;stroke:#000000;stroke-width:2.25}
		.st10 {fill:none;stroke:none;stroke-width:2.25}
		.st11 {fill:#000000;font-family:黑体;font-size:1.00001em}
		.st12 {font-family:Calibri;font-size:1em}
		.st13 {marker-end:url(#mrkr13-63);stroke:#000000;stroke-linecap:round;stroke-linejoin:round;stroke-width:2.25}
		.st14 {fill:#000000;fill-opacity:1;stroke:#000000;stroke-opacity:1;stroke-width:0.47169811320755}
		.st15 {marker-end:url(#mrkr13-99);stroke:#000000;stroke-linecap:round;stroke-linejoin:round;stroke-width:2.25}
		.st16 {marker-end:url(#mrkr13-131);stroke:#ffc000;stroke-linecap:round;stroke-linejoin:round;stroke-width:2.25}
		.st17 {fill:#ffc000;fill-opacity:1;stroke:#ffc000;stroke-opacity:1;stroke-width:0.47169811320755}
		.st18 {marker-end:url(#mrkr13-137);stroke:#205867;stroke-linecap:round;stroke-linejoin:round;stroke-width:2.25}
		.st19 {fill:#205867;fill-opacity:1;stroke:#205867;stroke-opacity:1;stroke-width:0.47169811320755}
		.st20 {marker-end:url(#mrkr13-143);stroke:#c0d6a0;stroke-linecap:round;stroke-linejoin:round;stroke-width:2.25}
		.st21 {fill:#c0d6a0;fill-opacity:1;stroke:#c0d6a0;stroke-opacity:1;stroke-width:0.47169811320755}
		.st22 {marker-end:url(#mrkr13-179);stroke:#ffc000;stroke-linecap:round;stroke-linejoin:round;stroke-width:2.25}
		.st23 {stroke:#ffc000;stroke-linecap:round;stroke-linejoin:round;stroke-width:2.25}
		.st24 {stroke:#205867;stroke-linecap:round;stroke-linejoin:round;stroke-width:2.25}
		.st25 {stroke:#c0d6a0;stroke-linecap:round;stroke-linejoin:round;stroke-width:2.25}
		.st26 {marker-start:url(#mrkr13-225);stroke:#ffc000;stroke-linecap:round;stroke-linejoin:round;stroke-width:2.25}
		.st27 {marker-start:url(#mrkr13-238);stroke:#205867;stroke-linecap:round;stroke-linejoin:round;stroke-width:2.25}
		.st28 {marker-start:url(#mrkr13-251);stroke:#c0d6a0;stroke-linecap:round;stroke-linejoin:round;stroke-width:2.25}
		.st29 {fill:#b7dde8;stroke:#000000;stroke-width:2.25}
		.st30 {baseline-shift:-32.4951%;font-size:0.649902em}
		.st31 {fill:#d7ddc5;stroke:#789440;stroke-width:2.25}
		.st32 {fill:#000000;font-family:Calibri;font-size:1.5em}
		.st33 {baseline-shift:-33.3496%;font-size:0.666992em}
		.st34 {marker-end:url(#mrkr4-376);stroke:#000000;stroke-linecap:round;stroke-linejoin:round;stroke-width:2.25}
		.st35 {marker-end:url(#mrkr4-382);stroke:#000000;stroke-linecap:round;stroke-linejoin:round;stroke-width:2.25}
		.st36 {fill:none;fill-rule:evenodd;font-size:12px;overflow:visible;stroke-linecap:square;stroke-miterlimit:3}
	]]>
	</style>

	<defs id="Markers">
		<g id="lend13">
			<path d="M 3 1 L 0 0 L 3 -1 L 3 1 " style="stroke:none"/>
		</g>
		<marker id="mrkr13-63" class="st14" v:arrowType="13" v:arrowSize="2" v:setback="6.36" refX="-6.36" orient="auto"
				markerUnits="strokeWidth" overflow="visible">
			<use xlink:href="#lend13" transform="scale(-2.12,-2.12) "/>
		</marker>
		<marker id="mrkr13-99" class="st14" v:arrowType="13" v:arrowSize="2" v:setback="0" refX="-0" orient="auto"
				markerUnits="strokeWidth" overflow="visible">
			<use xlink:href="#lend13" transform="scale(-2.12,-2.12) "/>
		</marker>
		<marker id="mrkr13-131" class="st17" v:arrowType="13" v:arrowSize="2" v:setback="6.36" refX="-6.36" orient="auto"
				markerUnits="strokeWidth" overflow="visible">
			<use xlink:href="#lend13" transform="scale(-2.12,-2.12) "/>
		</marker>
		<marker id="mrkr13-137" class="st19" v:arrowType="13" v:arrowSize="2" v:setback="6.36" refX="-6.36" orient="auto"
				markerUnits="strokeWidth" overflow="visible">
			<use xlink:href="#lend13" transform="scale(-2.12,-2.12) "/>
		</marker>
		<marker id="mrkr13-143" class="st21" v:arrowType="13" v:arrowSize="2" v:setback="6.36" refX="-6.36" orient="auto"
				markerUnits="strokeWidth" overflow="visible">
			<use xlink:href="#lend13" transform="scale(-2.12,-2.12) "/>
		</marker>
		<marker id="mrkr13-179" class="st17" v:arrowType="13" v:arrowSize="2" v:setback="0" refX="-0" orient="auto"
				markerUnits="strokeWidth" overflow="visible">
			<use xlink:href="#lend13" transform="scale(-2.12,-2.12) "/>
		</marker>
		<marker id="mrkr13-225" class="st17" v:arrowType="13" v:arrowSize="2" v:setback="6.2" refX="6.2" orient="auto"
				markerUnits="strokeWidth" overflow="visible">
			<use xlink:href="#lend13" transform="scale(2.12) "/>
		</marker>
		<marker id="mrkr13-238" class="st19" v:arrowType="13" v:arrowSize="2" v:setback="6.2" refX="6.2" orient="auto"
				markerUnits="strokeWidth" overflow="visible">
			<use xlink:href="#lend13" transform="scale(2.12) "/>
		</marker>
		<marker id="mrkr13-251" class="st21" v:arrowType="13" v:arrowSize="2" v:setback="6.2" refX="6.2" orient="auto"
				markerUnits="strokeWidth" overflow="visible">
			<use xlink:href="#lend13" transform="scale(2.12) "/>
		</marker>
		<g id="lend4">
			<path d="M 2 1 L 0 0 L 2 -1 L 2 1 " style="stroke:none"/>
		</g>
		<marker id="mrkr4-376" class="st14" v:arrowType="4" v:arrowSize="2" v:setback="4.08" refX="-4.08" orient="auto"
				markerUnits="strokeWidth" overflow="visible">
			<use xlink:href="#lend4" transform="scale(-2.12,-2.12) "/>
		</marker>
		<marker id="mrkr4-382" class="st14" v:arrowType="4" v:arrowSize="2" v:setback="4.24" refX="-4.24" orient="auto"
				markerUnits="strokeWidth" overflow="visible">
			<use xlink:href="#lend4" transform="scale(-2.12,-2.12) "/>
		</marker>
	</defs>
	<defs id="Filters">
		<filter id="filter_2">
			<feGaussianBlur stdDeviation="2"/>
		</filter>
	</defs>
	<g v:mID="0" v:index="1" v:groupContext="foregroundPage">
		<title>页-1</title>
		<v:pageProperties v:drawingScale="0.0393701" v:pageScale="0.0393701" v:drawingUnits="24" v:shadowOffsetX="8.50394"
				v:shadowOffsetY="-8.50394"/>
		<v:layer v:name="连接线" v:index="0"/>
		<g id="shape10-1" v:mID="10" v:groupContext="shape" transform="translate(1008.95,196.501) rotate(90)">
			<title>普通箭头</title>
			<v:userDefs>
				<v:ud v:nameU="visVersion" v:val="VT0(15):26"/>
				<v:ud v:nameU="ArrowType" v:prompt="" v:val="VT0(2):26"/>
			</v:userDefs>
			<g id="shadow10-2" v:groupContext="shadow" v:shadowOffsetX="0.345598" v:shadowOffsetY="-1.97279" v:shadowType="1"
					transform="matrix(1,0,0,1,1.97279,-0.345598)" class="st1">
				<path d="M0 697.47 L11.34 686.13 L11.34 691.8 L73.7 691.8 L73.7 697.47 L73.7 703.14 L11.34 703.14 L11.34 708.81 L0
							 697.47 Z" class="st2"/>
			</g>
			<path d="M0 697.47 L11.34 686.13 L11.34 691.8 L73.7 691.8 L73.7 697.47 L73.7 703.14 L11.34 703.14 L11.34 708.81 L0 697.47
						 Z" class="st3"/>
		</g>
		<g id="shape1-6" v:mID="1" v:groupContext="shape" transform="translate(3.7794,-548.755)">
			<title>圆形</title>
			<desc>Input</desc>
			<v:userDefs>
				<v:ud v:nameU="visVersion" v:val="VT0(15):26"/>
			</v:userDefs>
			<v:textBlock v:margins="rect(4,4,4,4)" v:tabSpace="42.5197"/>
			<v:textRect cx="31.3836" cy="666.089" width="54.93" height="47.0754"/>
			<g id="shadow1-7" v:groupContext="shadow" v:shadowOffsetX="0.345598" v:shadowOffsetY="-1.97279" v:shadowType="1"
					transform="matrix(1,0,0,1,0.345598,1.97279)" class="st1">
				<path d="M0 666.09 A31.3836 31.3836 0 0 1 62.77 666.09 A31.3836 31.3836 0 1 1 0 666.09 Z" class="st4"/>
			</g>
			<path d="M0 666.09 A31.3836 31.3836 0 0 1 62.77 666.09 A31.3836 31.3836 0 1 1 0 666.09 Z" class="st5"/>
			<text x="14.5" y="670.89" class="st6" v:langID="2052"><v:paragraph v:horizAlign="1"/><v:tabList/>Input</text>		</g>
		<g id="shape2-12" v:mID="2" v:groupContext="shape" transform="translate(-541.989,195.287) rotate(-90)">
			<title>矩形</title>
			<desc>Normal cell</desc>
			<v:userDefs>
				<v:ud v:nameU="visVersion" v:val="VT0(15):26"/>
			</v:userDefs>
			<v:textBlock v:margins="rect(4,4,4,4)" v:tabSpace="42.5197"/>
			<v:textRect cx="77.9528" cy="677.428" width="155.91" height="40.09"/>
			<g id="shadow2-13" v:groupContext="shadow" v:shadowOffsetX="0.345598" v:shadowOffsetY="-1.97279" v:shadowType="1"
					transform="matrix(1,0,0,1,-1.97279,0.345598)" class="st1">
				<rect x="0" y="657.383" width="155.906" height="40.09" class="st4"/>
			</g>
			<rect x="0" y="657.383" width="155.906" height="40.09" class="st7"/>
			<text x="35.22" y="682.83" class="st8" v:langID="2052"><v:paragraph v:horizAlign="1"/><v:tabList/>Normal cell</text>		</g>
		<g id="shape3-18" v:mID="3" v:groupContext="shape" transform="translate(-453.052,195.287) rotate(-90)">
			<title>矩形.3</title>
			<desc>Reduction cell</desc>
			<v:userDefs>
				<v:ud v:nameU="visVersion" v:val="VT0(15):26"/>
			</v:userDefs>
			<v:textBlock v:margins="rect(4,4,4,4)" v:tabSpace="42.5197"/>
			<v:textRect cx="77.9528" cy="677.428" width="155.91" height="40.09"/>
			<g id="shadow3-19" v:groupContext="shadow" v:shadowOffsetX="0.345598" v:shadowOffsetY="-1.97279" v:shadowType="1"
					transform="matrix(1,0,0,1,-1.97279,0.345598)" class="st1">
				<rect x="0" y="657.383" width="155.906" height="40.09" class="st4"/>
			</g>
			<rect x="0" y="657.383" width="155.906" height="40.09" class="st9"/>
			<text x="25.72" y="682.83" class="st8" v:langID="2052"><v:paragraph v:horizAlign="1"/><v:tabList/>Reduction cell</text>		</g>
		<g id="shape4-24" v:mID="4" v:groupContext="shape" transform="translate(-364.115,195.287) rotate(-90)">
			<title>矩形.4</title>
			<desc>Normal cell</desc>
			<v:userDefs>
				<v:ud v:nameU="visVersion" v:val="VT0(15):26"/>
			</v:userDefs>
			<v:textBlock v:margins="rect(4,4,4,4)" v:tabSpace="42.5197"/>
			<v:textRect cx="77.9528" cy="677.428" width="155.91" height="40.09"/>
			<g id="shadow4-25" v:groupContext="shadow" v:shadowOffsetX="0.345598" v:shadowOffsetY="-1.97279" v:shadowType="1"
					transform="matrix(1,0,0,1,-1.97279,0.345598)" class="st1">
				<rect x="0" y="657.383" width="155.906" height="40.09" class="st4"/>
			</g>
			<rect x="0" y="657.383" width="155.906" height="40.09" class="st7"/>
			<text x="35.22" y="682.83" class="st8" v:langID="2052"><v:paragraph v:horizAlign="1"/><v:tabList/>Normal cell</text>		</g>
		<g id="shape5-30" v:mID="5" v:groupContext="shape" transform="translate(-275.178,195.287) rotate(-90)">
			<title>矩形.5</title>
			<desc>Normal cell</desc>
			<v:userDefs>
				<v:ud v:nameU="visVersion" v:val="VT0(15):26"/>
			</v:userDefs>
			<v:textBlock v:margins="rect(4,4,4,4)" v:tabSpace="42.5197"/>
			<v:textRect cx="77.9528" cy="677.428" width="155.91" height="40.09"/>
			<g id="shadow5-31" v:groupContext="shadow" v:shadowOffsetX="0.345598" v:shadowOffsetY="-1.97279" v:shadowType="1"
					transform="matrix(1,0,0,1,-1.97279,0.345598)" class="st1">
				<rect x="0" y="657.383" width="155.906" height="40.09" class="st4"/>
			</g>
			<rect x="0" y="657.383" width="155.906" height="40.09" class="st7"/>
			<text x="35.22" y="682.83" class="st8" v:langID="2052"><v:paragraph v:horizAlign="1"/><v:tabList/>Normal cell</text>		</g>
		<g id="shape6-36" v:mID="6" v:groupContext="shape" transform="translate(428.622,-537.619)">
			<title>工作表.6</title>
			<desc>… …</desc>
			<v:textBlock v:margins="rect(4,4,4,4)" v:tabSpace="42.5197"/>
			<v:textRect cx="25.5118" cy="654.953" width="51.03" height="85.0394"/>
			<rect x="0" y="612.433" width="51.0236" height="85.0394" class="st10"/>
			<text x="10.8" y="658.95" class="st11" v:langID="2052"><v:paragraph v:horizAlign="1"/><v:tabList/>…<tspan class="st12">  </tspan>…</text>		</g>
		<g id="shape7-40" v:mID="7" v:groupContext="shape" transform="translate(-171.713,195.287) rotate(-90)">
			<title>矩形.7</title>
			<desc>Reduction cell</desc>
			<v:userDefs>
				<v:ud v:nameU="visVersion" v:val="VT0(15):26"/>
			</v:userDefs>
			<v:textBlock v:margins="rect(4,4,4,4)" v:tabSpace="42.5197"/>
			<v:textRect cx="77.9528" cy="677.428" width="155.91" height="40.09"/>
			<g id="shadow7-41" v:groupContext="shadow" v:shadowOffsetX="0.345598" v:shadowOffsetY="-1.97279" v:shadowType="1"
					transform="matrix(1,0,0,1,-1.97279,0.345598)" class="st1">
				<rect x="0" y="657.383" width="155.906" height="40.09" class="st4"/>
			</g>
			<rect x="0" y="657.383" width="155.906" height="40.09" class="st9"/>
			<text x="25.72" y="682.83" class="st8" v:langID="2052"><v:paragraph v:horizAlign="1"/><v:tabList/>Reduction cell</text>		</g>
		<g id="shape8-46" v:mID="8" v:groupContext="shape" transform="translate(-82.7765,195.287) rotate(-90)">
			<title>矩形.8</title>
			<desc>Normal cell</desc>
			<v:userDefs>
				<v:ud v:nameU="visVersion" v:val="VT0(15):26"/>
			</v:userDefs>
			<v:textBlock v:margins="rect(4,4,4,4)" v:tabSpace="42.5197"/>
			<v:textRect cx="77.9528" cy="677.428" width="155.91" height="40.09"/>
			<g id="shadow8-47" v:groupContext="shadow" v:shadowOffsetX="0.345598" v:shadowOffsetY="-1.97279" v:shadowType="1"
					transform="matrix(1,0,0,1,-1.97279,0.345598)" class="st1">
				<rect x="0" y="657.383" width="155.906" height="40.09" class="st4"/>
			</g>
			<rect x="0" y="657.383" width="155.906" height="40.09" class="st7"/>
			<text x="35.22" y="682.83" class="st8" v:langID="2052"><v:paragraph v:horizAlign="1"/><v:tabList/>Normal cell</text>		</g>
		<g id="shape9-52" v:mID="9" v:groupContext="shape" transform="translate(663.543,-548.755)">
			<title>圆形.9</title>
			<desc>Output</desc>
			<v:userDefs>
				<v:ud v:nameU="visVersion" v:val="VT0(15):26"/>
			</v:userDefs>
			<v:textBlock v:margins="rect(4,4,4,4)" v:tabSpace="42.5197"/>
			<v:textRect cx="31.3836" cy="666.089" width="54.93" height="47.0754"/>
			<g id="shadow9-53" v:groupContext="shadow" v:shadowOffsetX="0.345598" v:shadowOffsetY="-1.97279" v:shadowType="1"
					transform="matrix(1,0,0,1,0.345598,1.97279)" class="st1">
				<path d="M0 666.09 A31.3836 31.3836 0 0 1 62.77 666.09 A31.3836 31.3836 0 1 1 0 666.09 Z" class="st4"/>
			</g>
			<path d="M0 666.09 A31.3836 31.3836 0 0 1 62.77 666.09 A31.3836 31.3836 0 1 1 0 666.09 Z" class="st5"/>
			<text x="9.16" y="670.89" class="st6" v:langID="2052"><v:paragraph v:horizAlign="1"/><v:tabList/>Output</text>		</g>
		<g id="shape11-58" v:mID="11" v:groupContext="shape" v:layerMember="0" transform="translate(66.5466,-573.052)">
			<title>动态连接线</title>
			<path d="M0 690.39 L34.54 690.39" class="st13"/>
		</g>
		<g id="shape12-64" v:mID="12" v:groupContext="shape" v:layerMember="0" transform="translate(155.484,-573.052)">
			<title>动态连接线.12</title>
			<path d="M0 690.39 L34.54 690.39" class="st13"/>
		</g>
		<g id="shape13-69" v:mID="13" v:groupContext="shape" v:layerMember="0" transform="translate(244.421,-573.052)">
			<title>动态连接线.13</title>
			<path d="M0 690.39 L34.54 690.39" class="st13"/>
		</g>
		<g id="shape14-74" v:mID="14" v:groupContext="shape" v:layerMember="0" transform="translate(333.358,-573.052)">
			<title>动态连接线.14</title>
			<path d="M0 690.39 L34.54 690.39" class="st13"/>
		</g>
		<g id="shape15-79" v:mID="15" v:groupContext="shape" v:layerMember="0" transform="translate(525.759,-573.052)">
			<title>动态连接线.15</title>
			<path d="M0 690.39 L34.54 690.39" class="st13"/>
		</g>
		<g id="shape21-84" v:mID="21" v:groupContext="shape" v:layerMember="0" transform="translate(614.696,-573.052)">
			<title>动态连接线.21</title>
			<path d="M0 690.39 L34.54 690.39" class="st13"/>
		</g>
		<g id="shape25-89" v:mID="25" v:groupContext="shape" transform="translate(94.1843,-6.0978)">
			<title>圆角矩形</title>
			<v:userDefs>
				<v:ud v:nameU="CTypeTopLeftSnip" v:prompt="" v:val="VT0(0):5"/>
				<v:ud v:nameU="CTypeTopRightSnip" v:prompt="" v:val="VT0(0):5"/>
				<v:ud v:nameU="CTypeBotLeftSnip" v:prompt="" v:val="VT0(0):5"/>
				<v:ud v:nameU="CTypeBotRightSnip" v:prompt="" v:val="VT0(0):5"/>
				<v:ud v:nameU="CornerLockHoriz" v:prompt="" v:val="VT0(1):5"/>
				<v:ud v:nameU="CornerLockVert" v:prompt="" v:val="VT0(1):5"/>
				<v:ud v:nameU="CornerLockDiag" v:prompt="" v:val="VT0(0):5"/>
				<v:ud v:nameU="TopLeftOffset" v:prompt="" v:val="VT0(0.15748031496063):24"/>
				<v:ud v:nameU="TopRightOffset" v:prompt="" v:val="VT0(0.15748031496063):24"/>
				<v:ud v:nameU="BotLeftOffset" v:prompt="" v:val="VT0(0.15748031496063):24"/>
				<v:ud v:nameU="BotRightOffset" v:prompt="" v:val="VT0(0.15748031496063):24"/>
				<v:ud v:nameU="visVersion" v:prompt="" v:val="VT0(15):26"/>
				<v:ud v:nameU="TopLeftOffset" v:prompt="" v:val="VT0(0.77994938132733):1"/>
				<v:ud v:nameU="TopRightOffset" v:prompt="" v:val="VT0(0.77994938132733):1"/>
				<v:ud v:nameU="BotLeftOffset" v:prompt="" v:val="VT0(0.77994938132733):1"/>
				<v:ud v:nameU="BotRightOffset" v:prompt="" v:val="VT0(0.77994938132733):1"/>
			</v:userDefs>
			<g id="shadow25-90" v:groupContext="shadow" v:shadowOffsetX="0.345598" v:shadowOffsetY="-1.97279" v:shadowType="1"
					transform="matrix(1,0,0,1,0.345598,1.97279)" class="st1">
				<path d="M56.16 697.47 L505.41 697.47 A56.1554 56.1554 -180 0 0 561.56 641.32 L561.56 332.46 A56.1554 56.1554 -180
							 0 0 505.41 276.3 L56.16 276.3 A56.1554 56.1554 -180 0 0 -0 332.46 L0 641.32 A56.1554 56.1554 -180 0
							 0 56.16 697.47 Z" class="st4"/>
			</g>
			<path d="M56.16 697.47 L505.41 697.47 A56.1554 56.1554 -180 0 0 561.56 641.32 L561.56 332.46 A56.1554 56.1554 -180 0
						 0 505.41 276.3 L56.16 276.3 A56.1554 56.1554 -180 0 0 -0 332.46 L0 641.32 A56.1554 56.1554 -180 0 0 56.16
						 697.47 Z" class="st3"/>
		</g>
		<g id="shape92-94" v:mID="92" v:groupContext="shape" v:layerMember="0" transform="translate(66.5466,-580.139)">
			<title>直线-曲线连接线.92</title>
			<v:userDefs>
				<v:ud v:nameU="ScaleFactor" v:val="VT0(1):26"/>
				<v:ud v:nameU="visVersion" v:val="VT0(15):26"/>
			</v:userDefs>
			<path d="M0 697.47 L9.43 668.43 L19.06 644.23 L28.88 624.87 L38.9 610.35 L49.11 600.67 L59.52 595.83 L70.12 595.83 L80.91
						 600.67 L91.9 610.35 L103.08 624.87 L114.45 644.23 L126.02 668.43 L137.78 697.47" class="st15"/>
		</g>
		<g id="shape93-100" v:mID="93" v:groupContext="shape" v:layerMember="0" transform="translate(155.484,-580.139)">
			<title>直线-曲线连接线.93</title>
			<v:userDefs>
				<v:ud v:nameU="ScaleFactor" v:val="VT0(1):26"/>
				<v:ud v:nameU="visVersion" v:val="VT0(15):26"/>
			</v:userDefs>
			<path d="M0 697.47 L9.94 724.79 L19.99 747.55 L30.14 765.76 L40.41 779.42 L50.79 788.53 L61.28 793.08 L71.88 793.08 L82.59
						 788.53 L93.4 779.42 L104.33 765.76 L115.37 747.55 L126.52 724.79 L137.78 697.47" class="st15"/>
		</g>
		<g id="shape94-105" v:mID="94" v:groupContext="shape" v:layerMember="0" transform="translate(244.421,-580.139)">
			<title>直线-曲线连接线.94</title>
			<v:userDefs>
				<v:ud v:nameU="ScaleFactor" v:val="VT0(1):26"/>
				<v:ud v:nameU="visVersion" v:val="VT0(15):26"/>
			</v:userDefs>
			<path d="M0 697.47 L11.25 668.43 L22.38 644.23 L33.41 624.87 L44.34 610.35 L55.15 600.67 L65.86 595.83 L76.46 595.83
						 L86.95 600.67 L97.33 610.35 L107.61 624.87 L117.77 644.23 L127.83 668.43 L137.78 697.47" class="st15"/>
		</g>
		<g id="shape96-110" v:mID="96" v:groupContext="shape" v:layerMember="0" transform="translate(333.358,-580.139)">
			<title>直线-曲线连接线.96</title>
			<v:userDefs>
				<v:ud v:nameU="ScaleFactor" v:val="VT0(1):26"/>
				<v:ud v:nameU="visVersion" v:val="VT0(15):26"/>
			</v:userDefs>
			<path d="M0 697.47 L9.19 724.79 L18.81 747.55 L28.84 765.76 L39.3 779.42 L50.17 788.53 L61.47 793.08 L73.18 793.08 L85.32
						 788.53 L97.88 779.42 L110.85 765.76 L124.25 747.55 L138.07 724.79 L152.31 697.47" class="st15"/>
		</g>
		<g id="shape97-115" v:mID="97" v:groupContext="shape" v:layerMember="0" transform="translate(422.295,-580.139)">
			<title>直线-曲线连接线.97</title>
			<v:userDefs>
				<v:ud v:nameU="ScaleFactor" v:val="VT0(1):26"/>
				<v:ud v:nameU="visVersion" v:val="VT0(15):26"/>
			</v:userDefs>
			<path d="M0 697.47 L12.43 668.43 L24.74 644.23 L36.94 624.87 L49.01 610.35 L60.97 600.67 L72.8 595.83 L84.52 595.83 L96.11
						 600.67 L107.59 610.35 L118.95 624.87 L130.19 644.23 L141.31 668.43 L152.31 697.47" class="st15"/>
		</g>
		<g id="shape98-120" v:mID="98" v:groupContext="shape" v:layerMember="0" transform="translate(525.759,-580.139)">
			<title>直线-曲线连接线.98</title>
			<v:userDefs>
				<v:ud v:nameU="ScaleFactor" v:val="VT0(1):26"/>
				<v:ud v:nameU="visVersion" v:val="VT0(15):26"/>
			</v:userDefs>
			<path d="M0 697.47 L11.85 724.79 L23.49 747.55 L34.92 765.76 L46.15 779.42 L57.16 788.53 L67.97 793.08 L78.57 793.08
						 L88.96 788.53 L99.14 779.42 L109.11 765.76 L118.88 747.55 L128.44 724.79 L137.78 697.47" class="st15"/>
		</g>
		<g id="group169-125" transform="translate(152.446,-191.816)" v:mID="169" v:groupContext="group">
			<title>工作表.169</title>
			<g id="shape33-126" v:mID="33" v:groupContext="shape" v:layerMember="0" transform="translate(183.904,-170.258)">
				<title>动态连接线.33</title>
				<path d="M0 697.47 L86.48 747.05" class="st16"/>
			</g>
			<g id="shape34-132" v:mID="34" v:groupContext="shape" v:layerMember="0" transform="translate(170.079,-170.258)">
				<title>动态连接线.34</title>
				<path d="M0 697.47 L86.64 747.06" class="st18"/>
			</g>
			<g id="shape35-138" v:mID="35" v:groupContext="shape" v:layerMember="0" transform="translate(156.253,-170.258)">
				<title>动态连接线.35</title>
				<path d="M0 697.47 L86.48 747.05" class="st20"/>
			</g>
			<g id="shape39-144" v:mID="39" v:groupContext="shape" v:layerMember="0" transform="translate(51.0236,-94.6276)">
				<title>动态连接线.39</title>
				<path d="M0 690.39 L178.29 690.39" class="st16"/>
			</g>
			<g id="shape40-149" v:mID="40" v:groupContext="shape" v:layerMember="0" transform="translate(51.0236,-80.9664)">
				<title>动态连接线.40</title>
				<path d="M0 690.39 L178.29 690.39" class="st18"/>
			</g>
			<g id="shape41-154" v:mID="41" v:groupContext="shape" v:layerMember="0" transform="translate(51.0236,-66.9761)">
				<title>动态连接线.41</title>
				<path d="M0 690.39 L178.29 690.39" class="st20"/>
			</g>
			<g id="shape42-159" v:mID="42" v:groupContext="shape" v:layerMember="0" transform="translate(294.651,-94.6276)">
				<title>动态连接线.42</title>
				<path d="M0 690.39 L85.05 690.39" class="st16"/>
			</g>
			<g id="shape43-164" v:mID="43" v:groupContext="shape" v:layerMember="0" transform="translate(294.651,-80.9664)">
				<title>动态连接线.43</title>
				<path d="M0 690.39 L85.05 690.39" class="st18"/>
			</g>
			<g id="shape44-169" v:mID="44" v:groupContext="shape" v:layerMember="0" transform="translate(294.651,-66.9761)">
				<title>动态连接线.44</title>
				<path d="M0 690.39 L85.05 690.39" class="st20"/>
			</g>
			<g id="shape78-174" v:mID="78" v:groupContext="shape" v:layerMember="0" transform="translate(398.615,-48.7932)">
				<title>动态连接线.78</title>
				<path d="M7.09 697.05 L7.09 683.72" class="st22"/>
			</g>
			<g id="group99-180" transform="translate(4.43485,-113.565)" v:mID="99" v:groupContext="group">
				<title>工作表.99</title>
				<g id="shape74-181" v:mID="74" v:groupContext="shape" v:layerMember="0" transform="translate(34.8772,-102.953)">
					<title>动态连接线.74</title>
					<path d="M0 704.56 L90.94 704.56" class="st16"/>
				</g>
				<g id="shape75-186" v:mID="75" v:groupContext="shape" v:layerMember="0">
					<title>动态连接线.75</title>
					<path d="M7.09 697.47 L7.09 634.25" class="st23"/>
				</g>
				<g id="shape76-189" v:mID="76" v:groupContext="shape" v:layerMember="0"
						transform="translate(538.133,1086.42) rotate(-49.5866) scale(1,-1)">
					<title>直线-曲线连接线.76</title>
					<v:userDefs>
						<v:ud v:nameU="ScaleFactor" v:val="VT0(1):26"/>
						<v:ud v:nameU="visVersion" v:val="VT0(15):26"/>
					</v:userDefs>
					<path d="M0 697.47 L9.97 704.06 L19.24 707.35 L27.81 707.35 L35.69 704.06 L42.87 697.47" class="st23"/>
				</g>
			</g>
			<g id="group100-192" transform="translate(18.4252,-113.565)" v:mID="100" v:groupContext="group">
				<title>工作表.100</title>
				<g id="shape71-193" v:mID="71" v:groupContext="shape" v:layerMember="0" transform="translate(14.1732,1.13687E-13)">
					<title>动态连接线.71</title>
					<path d="M-7.09 697.47 L-7.09 645.53" class="st24"/>
				</g>
				<g id="shape72-196" v:mID="72" v:groupContext="shape" v:layerMember="0" transform="translate(36.1417,-89.2913)">
					<title>动态连接线.72</title>
					<path d="M0 704.56 L75.69 704.56" class="st18"/>
				</g>
				<g id="shape73-201" v:mID="73" v:groupContext="shape" v:layerMember="0"
						transform="translate(517.363,1121.93) rotate(-47.0214) scale(1,-1)">
					<title>直线-曲线连接线.73</title>
					<v:userDefs>
						<v:ud v:nameU="ScaleFactor" v:val="VT0(1):26"/>
						<v:ud v:nameU="visVersion" v:val="VT0(15):26"/>
					</v:userDefs>
					<path d="M0 697.47 L8.81 704.75 L17.48 708.38 L26.01 708.38 L34.38 704.75 L42.62 697.47" class="st24"/>
				</g>
			</g>
			<g id="group101-204" transform="translate(32.0864,-113.565)" v:mID="101" v:groupContext="group">
				<title>工作表.101</title>
				<g id="shape68-205" v:mID="68" v:groupContext="shape" v:layerMember="0">
					<title>动态连接线.68</title>
					<path d="M7.09 697.47 L7.09 647.87" class="st25"/>
				</g>
				<g id="shape69-208" v:mID="69" v:groupContext="shape" v:layerMember="0" transform="translate(26.0239,-61.0363)">
					<title>动态连接线.69</title>
					<path d="M0 690.48 L72.15 690.32" class="st20"/>
				</g>
				<g id="shape70-213" v:mID="70" v:groupContext="shape" v:layerMember="0"
						transform="translate(493.469,1147.77) rotate(-44.2148) scale(1,-1)">
					<title>直线-曲线连接线.70</title>
					<v:userDefs>
						<v:ud v:nameU="ScaleFactor" v:val="VT0(1):26"/>
						<v:ud v:nameU="visVersion" v:val="VT0(15):26"/>
					</v:userDefs>
					<path d="M0 697.47 L5.34 701.85 L10.65 704.04 L15.94 704.04 L21.19 701.85 L26.42 697.47" class="st25"/>
				</g>
			</g>
			<g id="group102-216" transform="translate(195.591,-113.565)" v:mID="102" v:groupContext="group">
				<title>工作表.102</title>
				<g id="shape56-217" v:mID="56" v:groupContext="shape" v:layerMember="0" transform="translate(7.99361E-14,-88.7793)">
					<title>动态连接线.56</title>
					<path d="M0 690.39 L185.36 690.39" class="st23"/>
				</g>
				<g id="shape57-220" v:mID="57" v:groupContext="shape" v:layerMember="0" transform="translate(230.512,0)">
					<title>动态连接线.57</title>
					<path d="M7.09 683.52 L7.09 683.16 L7.09 636.82" class="st26"/>
				</g>
				<g id="shape58-226" v:mID="58" v:groupContext="shape" v:layerMember="0"
						transform="translate(575.25,23.2859) rotate(33.9868)">
					<title>直线-曲线连接线.58</title>
					<v:userDefs>
						<v:ud v:nameU="ScaleFactor" v:val="VT0(1):26"/>
						<v:ud v:nameU="visVersion" v:val="VT0(15):26"/>
					</v:userDefs>
					<path d="M0 697.47 L13.25 689.17 L25.4 684.19 L36.45 682.54 L46.4 684.19 L55.25 689.17 L63 697.47" class="st23"/>
				</g>
			</g>
			<g id="group103-229" transform="translate(195.591,-113.565)" v:mID="103" v:groupContext="group">
				<title>工作表.103</title>
				<g id="shape62-230" v:mID="62" v:groupContext="shape" v:layerMember="0"
						transform="translate(-9.02566E-08,-75.1181)">
					<title>动态连接线.56</title>
					<path d="M0 690.39 L184.25 690.39" class="st24"/>
				</g>
				<g id="shape63-233" v:mID="63" v:groupContext="shape" v:layerMember="0" transform="translate(231.024,-1.13687E-13)">
					<title>动态连接线.57</title>
					<path d="M-7.09 683.52 L-7.09 683.16 L-7.09 647.87" class="st27"/>
				</g>
				<g id="shape64-239" v:mID="64" v:groupContext="shape" v:layerMember="0"
						transform="translate(626.965,76.3125) rotate(39.4007)">
					<title>直线-曲线连接线.58</title>
					<v:userDefs>
						<v:ud v:nameU="ScaleFactor" v:val="VT0(1):26"/>
						<v:ud v:nameU="visVersion" v:val="VT0(15):26"/>
					</v:userDefs>
					<path d="M0 697.47 L10.68 690.13 L20.51 685.72 L29.49 684.25 L37.63 685.72 L44.92 690.13 L51.36 697.47"
							class="st24"/>
				</g>
			</g>
			<g id="group104-242" transform="translate(195.591,-113.565)" v:mID="104" v:groupContext="group">
				<title>工作表.104</title>
				<g id="shape65-243" v:mID="65" v:groupContext="shape" v:layerMember="0" transform="translate(-2.8777E-13,-61.1278)">
					<title>动态连接线.65</title>
					<path d="M0 690.39 L185.36 690.39" class="st25"/>
				</g>
				<g id="shape66-246" v:mID="66" v:groupContext="shape" v:layerMember="0" transform="translate(217.033,-1.13687E-13)">
					<title>动态连接线.66</title>
					<path d="M-7.09 683.52 L-7.09 683.16 L-7.09 647.87" class="st28"/>
				</g>
				<g id="shape67-252" v:mID="67" v:groupContext="shape" v:layerMember="0"
						transform="translate(606.287,73.1201) rotate(37.1211)">
					<title>直线-曲线连接线.67</title>
					<v:userDefs>
						<v:ud v:nameU="ScaleFactor" v:val="VT0(1):26"/>
						<v:ud v:nameU="visVersion" v:val="VT0(15):26"/>
					</v:userDefs>
					<path d="M0 697.47 L7.57 692.5 L14.44 690.01 L20.61 690.01 L26.07 692.5 L30.83 697.47" class="st25"/>
				</g>
			</g>
			<g id="group106-255" transform="translate(32.251,-27.1082)" v:mID="106" v:groupContext="group">
				<title>工作表.106</title>
				<g id="shape83-256" v:mID="83" v:groupContext="shape" v:layerMember="0"
						transform="translate(-1.35891E-13,-22.8682)">
					<title>动态连接线.83</title>
					<path d="M7.09 695.86 L7.09 684.91" class="st23"/>
				</g>
				<g id="group105-259" transform="translate(7.05008,0)" v:mID="105" v:groupContext="group">
					<title>工作表.105</title>
					<g id="shape77-260" v:mID="77" v:groupContext="shape" v:layerMember="0" transform="translate(20.2265,0)">
						<title>动态连接线.77</title>
						<path d="M0 690.39 L321.45 690.39" class="st23"/>
					</g>
					<g id="shape86-263" v:mID="86" v:groupContext="shape" v:layerMember="0"
							transform="translate(-434.952,1218.86) rotate(-139.261)">
						<title>直线-曲线连接线.86</title>
						<v:userDefs>
							<v:ud v:nameU="ScaleFactor" v:val="VT0(1):26"/>
							<v:ud v:nameU="visVersion" v:val="VT0(15):26"/>
						</v:userDefs>
						<path d="M0 697.47 L6.14 693.02 L11.87 690.8 L17.2 690.8 L22.13 693.02 L26.65 697.47" class="st23"/>
					</g>
					<g id="shape89-266" v:mID="89" v:groupContext="shape" v:layerMember="0"
							transform="translate(703.855,1286.45) rotate(-31.2836) scale(1,-1)">
						<title>直线-曲线连接线.89</title>
						<v:userDefs>
							<v:ud v:nameU="ScaleFactor" v:val="VT0(1):26"/>
							<v:ud v:nameU="visVersion" v:val="VT0(15):26"/>
						</v:userDefs>
						<path d="M0 697.47 L8.08 693.43 L15.01 691.4 L20.8 691.4 L25.44 693.43 L28.93 697.47" class="st23"/>
					</g>
				</g>
			</g>
			<g id="group107-269" transform="translate(18.4252,-14.0048)" v:mID="107" v:groupContext="group">
				<title>工作表.107</title>
			</g>
			<g id="group108-270" transform="translate(4.59944,0)" v:mID="108" v:groupContext="group">
				<title>工作表.108</title>
				<g id="shape80-271" v:mID="80" v:groupContext="shape" v:layerMember="0" transform="translate(26.5817,0)">
					<title>动态连接线.80</title>
					<path d="M0 690.39 L382.11 690.39" class="st25"/>
				</g>
				<g id="shape82-274" v:mID="82" v:groupContext="shape" v:layerMember="0" transform="translate(421.667,-33.395)">
					<title>动态连接线.82</title>
					<path d="M7.09 697.47 L7.09 682.64" class="st20"/>
				</g>
				<g id="shape85-279" v:mID="85" v:groupContext="shape" v:layerMember="0"
						transform="translate(-1.53877E-13,-29.0924)">
					<title>动态连接线.85</title>
					<path d="M7.09 697.47 L7.09 664.02" class="st25"/>
				</g>
				<g id="shape88-282" v:mID="88" v:groupContext="shape" v:layerMember="0"
						transform="translate(-495.489,1152.89) rotate(-131.538)">
					<title>直线-曲线连接线.88</title>
					<v:userDefs>
						<v:ud v:nameU="ScaleFactor" v:val="VT0(1):26"/>
						<v:ud v:nameU="visVersion" v:val="VT0(15):26"/>
					</v:userDefs>
					<path d="M0 697.47 L6.05 693.08 L12.01 690.88 L17.89 690.88 L23.69 693.08 L29.4 697.47" class="st25"/>
				</g>
				<g id="shape91-285" v:mID="91" v:groupContext="shape" v:layerMember="0"
						transform="translate(963.306,1113.32) rotate(-52.6719) scale(1,-1)">
					<title>直线-曲线连接线.91</title>
					<v:userDefs>
						<v:ud v:nameU="ScaleFactor" v:val="VT0(1):26"/>
						<v:ud v:nameU="visVersion" v:val="VT0(15):26"/>
					</v:userDefs>
					<path d="M0 697.47 L5.45 692.79 L11.48 690.45 L18.1 690.45 L25.3 692.79 L33.08 697.47" class="st25"/>
				</g>
			</g>
			<g id="group110-288" transform="translate(18.4252,-14.0048)" v:mID="110" v:groupContext="group">
				<title>工作表.110</title>
				<g id="shape81-289" v:mID="81" v:groupContext="shape" v:layerMember="0" transform="translate(394.016,-27.7423)">
					<title>动态连接线.81</title>
					<path d="M7.09 697.47 L7.09 690.99" class="st18"/>
				</g>
				<g id="shape84-294" v:mID="84" v:groupContext="shape" v:layerMember="0" transform="translate(3.9968E-15,-25.8716)">
					<title>动态连接线.84</title>
					<path d="M7.09 697.47 L7.09 674.81" class="st24"/>
				</g>
				<g id="shape87-297" v:mID="87" v:groupContext="shape" v:layerMember="0"
						transform="translate(-482.157,1169.37) rotate(-133.373)">
					<title>直线-曲线连接线.87</title>
					<v:userDefs>
						<v:ud v:nameU="ScaleFactor" v:val="VT0(1):26"/>
						<v:ud v:nameU="visVersion" v:val="VT0(15):26"/>
					</v:userDefs>
					<path d="M0 697.47 L7 693.21 L13.64 691.79 L19.92 693.21 L25.84 697.47" class="st24"/>
				</g>
				<g id="shape90-300" v:mID="90" v:groupContext="shape" v:layerMember="0"
						transform="translate(834.333,1217.25) rotate(-40.9411) scale(1,-1)">
					<title>直线-曲线连接线.90</title>
					<v:userDefs>
						<v:ud v:nameU="ScaleFactor" v:val="VT0(1):26"/>
						<v:ud v:nameU="visVersion" v:val="VT0(15):26"/>
					</v:userDefs>
					<path d="M0 697.47 L6.92 692.09 L13.53 689.4 L19.83 689.4 L25.83 692.09 L31.52 697.47" class="st24"/>
				</g>
				<g id="group109-303" transform="translate(24.834,0)" v:mID="109" v:groupContext="group">
					<title>工作表.109</title>
					<g id="shape79-304" v:mID="79" v:groupContext="shape" v:layerMember="0" transform="translate(0,-14.1732)">
						<title>动态连接线.79</title>
						<path d="M0 704.56 L352.46 704.56" class="st24"/>
					</g>
				</g>
			</g>
			<g id="shape26-307" v:mID="26" v:groupContext="shape" transform="translate(-3.19744E-14,-62.5412)">
				<title>正方形</title>
				<desc>X1</desc>
				<v:userDefs>
					<v:ud v:nameU="visVersion" v:val="VT0(15):26"/>
				</v:userDefs>
				<v:textBlock v:margins="rect(4,4,4,4)" v:tabSpace="42.5197"/>
				<v:textRect cx="25.5118" cy="671.961" width="51.03" height="51.0236"/>
				<g id="shadow26-308" v:groupContext="shadow" v:shadowOffsetX="0.345598" v:shadowOffsetY="-1.97279" v:shadowType="1"
						transform="matrix(1,0,0,1,0.345598,1.97279)" class="st1">
					<rect x="0" y="646.449" width="51.0236" height="51.0236" class="st4"/>
				</g>
				<rect x="0" y="646.449" width="51.0236" height="51.0236" class="st29"/>
				<text x="16.09" y="677.36" class="st8" v:langID="2052"><v:paragraph v:horizAlign="1"/><v:tabList/>X<tspan
							dy="-0.279em" class="st30" v:baseFontSize="18">1</tspan></text>			</g>
			<g id="shape27-314" v:mID="27" v:groupContext="shape" transform="translate(144.567,-170.258)">
				<title>正方形.27</title>
				<desc>X2</desc>
				<v:userDefs>
					<v:ud v:nameU="visVersion" v:val="VT0(15):26"/>
				</v:userDefs>
				<v:textBlock v:margins="rect(4,4,4,4)" v:tabSpace="42.5197"/>
				<v:textRect cx="25.5118" cy="671.961" width="51.03" height="51.0236"/>
				<g id="shadow27-315" v:groupContext="shadow" v:shadowOffsetX="0.345598" v:shadowOffsetY="-1.97279" v:shadowType="1"
						transform="matrix(1,0,0,1,0.345598,1.97279)" class="st1">
					<rect x="0" y="646.449" width="51.0236" height="51.0236" class="st4"/>
				</g>
				<rect x="0" y="646.449" width="51.0236" height="51.0236" class="st29"/>
				<text x="16.09" y="677.36" class="st8" v:langID="2052"><v:paragraph v:horizAlign="1"/><v:tabList/>X<tspan
							dy="-0.279em" class="st30" v:baseFontSize="18">2</tspan></text>			</g>
			<g id="shape28-321" v:mID="28" v:groupContext="shape" transform="translate(243.628,-62.5412)">
				<title>正方形.28</title>
				<desc>X3</desc>
				<v:userDefs>
					<v:ud v:nameU="visVersion" v:val="VT0(15):26"/>
				</v:userDefs>
				<v:textBlock v:margins="rect(4,4,4,4)" v:tabSpace="42.5197"/>
				<v:textRect cx="25.5118" cy="671.961" width="51.03" height="51.0236"/>
				<g id="shadow28-322" v:groupContext="shadow" v:shadowOffsetX="0.345598" v:shadowOffsetY="-1.97279" v:shadowType="1"
						transform="matrix(1,0,0,1,0.345598,1.97279)" class="st1">
					<rect x="0" y="646.449" width="51.0236" height="51.0236" class="st4"/>
				</g>
				<rect x="0" y="646.449" width="51.0236" height="51.0236" class="st29"/>
				<text x="16.09" y="677.36" class="st8" v:langID="2052"><v:paragraph v:horizAlign="1"/><v:tabList/>X<tspan
							dy="-0.279em" class="st30" v:baseFontSize="18">3</tspan></text>			</g>
			<g id="shape29-328" v:mID="29" v:groupContext="shape" transform="translate(394.016,-62.5412)">
				<title>正方形.29</title>
				<desc>X4</desc>
				<v:userDefs>
					<v:ud v:nameU="visVersion" v:val="VT0(15):26"/>
				</v:userDefs>
				<v:textBlock v:margins="rect(4,4,4,4)" v:tabSpace="42.5197"/>
				<v:textRect cx="25.5118" cy="671.961" width="51.03" height="51.0236"/>
				<g id="shadow29-329" v:groupContext="shadow" v:shadowOffsetX="0.345598" v:shadowOffsetY="-1.97279" v:shadowType="1"
						transform="matrix(1,0,0,1,0.345598,1.97279)" class="st1">
					<rect x="0" y="646.449" width="51.0236" height="51.0236" class="st4"/>
				</g>
				<rect x="0" y="646.449" width="51.0236" height="51.0236" class="st29"/>
				<text x="16.09" y="677.36" class="st8" v:langID="2052"><v:paragraph v:horizAlign="1"/><v:tabList/>X<tspan
							dy="-0.279em" class="st30" v:baseFontSize="18">4</tspan></text>			</g>
		</g>
		<g id="group203-335" transform="translate(171.023,-16.2468)" v:mID="203" v:groupContext="group">
			<title>工作表.203</title>
			<g id="shape192-336" v:mID="192" v:groupContext="shape" transform="translate(0,-55.2756)">
				<title>正方形</title>
				<desc>X1</desc>
				<v:userDefs>
					<v:ud v:nameU="visVersion" v:val="VT0(15):26"/>
				</v:userDefs>
				<v:textBlock v:margins="rect(4,4,4,4)" v:tabSpace="42.5197"/>
				<v:textRect cx="25.5118" cy="671.961" width="51.03" height="51.0236"/>
				<g id="shadow192-337" v:groupContext="shadow" v:shadowOffsetX="0.345598" v:shadowOffsetY="-1.97279"
						v:shadowType="1" transform="matrix(1,0,0,1,0.345598,1.97279)" class="st1">
					<rect x="0" y="646.449" width="51.0236" height="51.0236" class="st4"/>
				</g>
				<rect x="0" y="646.449" width="51.0236" height="51.0236" class="st29"/>
				<text x="16.09" y="677.36" class="st8" v:langID="2052"><v:paragraph v:horizAlign="1"/><v:tabList/>X<tspan
							dy="-0.279em" class="st30" v:baseFontSize="18">1</tspan></text>			</g>
			<g id="shape193-343" v:mID="193" v:groupContext="shape" transform="translate(362.835,-55.2756)">
				<title>正方形.27</title>
				<desc>X2</desc>
				<v:userDefs>
					<v:ud v:nameU="visVersion" v:val="VT0(15):26"/>
				</v:userDefs>
				<v:textBlock v:margins="rect(4,4,4,4)" v:tabSpace="42.5197"/>
				<v:textRect cx="25.5118" cy="671.961" width="51.03" height="51.0236"/>
				<g id="shadow193-344" v:groupContext="shadow" v:shadowOffsetX="0.345598" v:shadowOffsetY="-1.97279"
						v:shadowType="1" transform="matrix(1,0,0,1,0.345598,1.97279)" class="st1">
					<rect x="0" y="646.449" width="51.0236" height="51.0236" class="st4"/>
				</g>
				<rect x="0" y="646.449" width="51.0236" height="51.0236" class="st29"/>
				<text x="16.09" y="677.36" class="st8" v:langID="2052"><v:paragraph v:horizAlign="1"/><v:tabList/>X<tspan
							dy="-0.279em" class="st30" v:baseFontSize="18">2</tspan></text>			</g>
			<g id="shape194-350" v:mID="194" v:groupContext="shape" transform="translate(136.063,-126.142)">
				<title>圆角矩形.172</title>
				<desc>OP1</desc>
				<v:userDefs>
					<v:ud v:nameU="CTypeTopLeftSnip" v:prompt="" v:val="VT0(0):5"/>
					<v:ud v:nameU="CTypeTopRightSnip" v:prompt="" v:val="VT0(0):5"/>
					<v:ud v:nameU="CTypeBotLeftSnip" v:prompt="" v:val="VT0(0):5"/>
					<v:ud v:nameU="CTypeBotRightSnip" v:prompt="" v:val="VT0(0):5"/>
					<v:ud v:nameU="CornerLockHoriz" v:prompt="" v:val="VT0(1):5"/>
					<v:ud v:nameU="CornerLockVert" v:prompt="" v:val="VT0(1):5"/>
					<v:ud v:nameU="CornerLockDiag" v:prompt="" v:val="VT0(0):5"/>
					<v:ud v:nameU="TopLeftOffset" v:prompt="" v:val="VT0(0.15748031496063):24"/>
					<v:ud v:nameU="TopRightOffset" v:prompt="" v:val="VT0(0.15748031496063):24"/>
					<v:ud v:nameU="BotLeftOffset" v:prompt="" v:val="VT0(0.15748031496063):24"/>
					<v:ud v:nameU="BotRightOffset" v:prompt="" v:val="VT0(0.15748031496063):24"/>
					<v:ud v:nameU="visVersion" v:prompt="" v:val="VT0(15):26"/>
					<v:ud v:nameU="TopLeftOffset" v:prompt="" v:val="VT0(0.19685039370079):1"/>
					<v:ud v:nameU="TopRightOffset" v:prompt="" v:val="VT0(0.19685039370079):1"/>
					<v:ud v:nameU="BotLeftOffset" v:prompt="" v:val="VT0(0.19685039370079):1"/>
					<v:ud v:nameU="BotRightOffset" v:prompt="" v:val="VT0(0.19685039370079):1"/>
				</v:userDefs>
				<v:textBlock v:margins="rect(4,4,4,4)" v:tabSpace="42.5197"/>
				<v:textRect cx="70.8661" cy="679.047" width="141.74" height="36.8504"/>
				<g id="shadow194-351" v:groupContext="shadow" v:shadowOffsetX="0.345598" v:shadowOffsetY="-1.97279"
						v:shadowType="1" transform="matrix(1,0,0,1,0.345598,1.97279)" class="st1">
					<path d="M14.17 697.47 L127.56 697.47 A14.173 14.173 -180 0 0 141.73 683.3 L141.73 674.8 A14.173 14.173 -180
								 0 0 127.56 660.62 L14.17 660.62 A14.173 14.173 -180 0 0 0 674.8 L0 683.3 A14.173 14.173 -180 0 0
								 14.17 697.47 Z" class="st4"/>
				</g>
				<path d="M14.17 697.47 L127.56 697.47 A14.173 14.173 -180 0 0 141.73 683.3 L141.73 674.8 A14.173 14.173 -180 0 0
							 127.56 660.62 L14.17 660.62 A14.173 14.173 -180 0 0 0 674.8 L0 683.3 A14.173 14.173 -180 0 0 14.17 697.47
							 Z" class="st31"/>
				<text x="57.22" y="684.45" class="st32" v:langID="2052"><v:paragraph v:horizAlign="1"/><v:tabList/>OP<tspan
							dy="-0.289em" class="st33" v:baseFontSize="18">1</tspan></text>			</g>
			<g id="shape195-357" v:mID="195" v:groupContext="shape" transform="translate(136.063,-62.3622)">
				<title>圆角矩形.173</title>
				<desc>OP1</desc>
				<v:userDefs>
					<v:ud v:nameU="CTypeTopLeftSnip" v:prompt="" v:val="VT0(0):5"/>
					<v:ud v:nameU="CTypeTopRightSnip" v:prompt="" v:val="VT0(0):5"/>
					<v:ud v:nameU="CTypeBotLeftSnip" v:prompt="" v:val="VT0(0):5"/>
					<v:ud v:nameU="CTypeBotRightSnip" v:prompt="" v:val="VT0(0):5"/>
					<v:ud v:nameU="CornerLockHoriz" v:prompt="" v:val="VT0(1):5"/>
					<v:ud v:nameU="CornerLockVert" v:prompt="" v:val="VT0(1):5"/>
					<v:ud v:nameU="CornerLockDiag" v:prompt="" v:val="VT0(0):5"/>
					<v:ud v:nameU="TopLeftOffset" v:prompt="" v:val="VT0(0.15748031496063):24"/>
					<v:ud v:nameU="TopRightOffset" v:prompt="" v:val="VT0(0.15748031496063):24"/>
					<v:ud v:nameU="BotLeftOffset" v:prompt="" v:val="VT0(0.15748031496063):24"/>
					<v:ud v:nameU="BotRightOffset" v:prompt="" v:val="VT0(0.15748031496063):24"/>
					<v:ud v:nameU="visVersion" v:prompt="" v:val="VT0(15):26"/>
					<v:ud v:nameU="TopLeftOffset" v:prompt="" v:val="VT0(0.19685039370079):1"/>
					<v:ud v:nameU="TopRightOffset" v:prompt="" v:val="VT0(0.19685039370079):1"/>
					<v:ud v:nameU="BotLeftOffset" v:prompt="" v:val="VT0(0.19685039370079):1"/>
					<v:ud v:nameU="BotRightOffset" v:prompt="" v:val="VT0(0.19685039370079):1"/>
				</v:userDefs>
				<v:textBlock v:margins="rect(4,4,4,4)" v:tabSpace="42.5197"/>
				<v:textRect cx="70.8661" cy="679.047" width="141.74" height="36.8504"/>
				<g id="shadow195-358" v:groupContext="shadow" v:shadowOffsetX="0.345598" v:shadowOffsetY="-1.97279"
						v:shadowType="1" transform="matrix(1,0,0,1,0.345598,1.97279)" class="st1">
					<path d="M14.17 697.47 L127.56 697.47 A14.173 14.173 -180 0 0 141.73 683.3 L141.73 674.8 A14.173 14.173 -180
								 0 0 127.56 660.62 L14.17 660.62 A14.173 14.173 -180 0 0 0 674.8 L0 683.3 A14.173 14.173 -180 0 0
								 14.17 697.47 Z" class="st4"/>
				</g>
				<path d="M14.17 697.47 L127.56 697.47 A14.173 14.173 -180 0 0 141.73 683.3 L141.73 674.8 A14.173 14.173 -180 0 0
							 127.56 660.62 L14.17 660.62 A14.173 14.173 -180 0 0 0 674.8 L0 683.3 A14.173 14.173 -180 0 0 14.17 697.47
							 Z" class="st31"/>
				<text x="57.22" y="684.45" class="st32" v:langID="2052"><v:paragraph v:horizAlign="1"/><v:tabList/>OP<tspan
							dy="-0.289em" class="st33" v:baseFontSize="18">1</tspan></text>			</g>
			<g id="shape196-364" v:mID="196" v:groupContext="shape" transform="translate(136.063,0)">
				<title>圆角矩形.174</title>
				<desc>OP1</desc>
				<v:userDefs>
					<v:ud v:nameU="CTypeTopLeftSnip" v:prompt="" v:val="VT0(0):5"/>
					<v:ud v:nameU="CTypeTopRightSnip" v:prompt="" v:val="VT0(0):5"/>
					<v:ud v:nameU="CTypeBotLeftSnip" v:prompt="" v:val="VT0(0):5"/>
					<v:ud v:nameU="CTypeBotRightSnip" v:prompt="" v:val="VT0(0):5"/>
					<v:ud v:nameU="CornerLockHoriz" v:prompt="" v:val="VT0(1):5"/>
					<v:ud v:nameU="CornerLockVert" v:prompt="" v:val="VT0(1):5"/>
					<v:ud v:nameU="CornerLockDiag" v:prompt="" v:val="VT0(0):5"/>
					<v:ud v:nameU="TopLeftOffset" v:prompt="" v:val="VT0(0.15748031496063):24"/>
					<v:ud v:nameU="TopRightOffset" v:prompt="" v:val="VT0(0.15748031496063):24"/>
					<v:ud v:nameU="BotLeftOffset" v:prompt="" v:val="VT0(0.15748031496063):24"/>
					<v:ud v:nameU="BotRightOffset" v:prompt="" v:val="VT0(0.15748031496063):24"/>
					<v:ud v:nameU="visVersion" v:prompt="" v:val="VT0(15):26"/>
					<v:ud v:nameU="TopLeftOffset" v:prompt="" v:val="VT0(0.19685039370079):1"/>
					<v:ud v:nameU="TopRightOffset" v:prompt="" v:val="VT0(0.19685039370079):1"/>
					<v:ud v:nameU="BotLeftOffset" v:prompt="" v:val="VT0(0.19685039370079):1"/>
					<v:ud v:nameU="BotRightOffset" v:prompt="" v:val="VT0(0.19685039370079):1"/>
				</v:userDefs>
				<v:textBlock v:margins="rect(4,4,4,4)" v:tabSpace="42.5197"/>
				<v:textRect cx="70.8661" cy="679.047" width="141.74" height="36.8504"/>
				<g id="shadow196-365" v:groupContext="shadow" v:shadowOffsetX="0.345598" v:shadowOffsetY="-1.97279"
						v:shadowType="1" transform="matrix(1,0,0,1,0.345598,1.97279)" class="st1">
					<path d="M14.17 697.47 L127.56 697.47 A14.173 14.173 -180 0 0 141.73 683.3 L141.73 674.8 A14.173 14.173 -180
								 0 0 127.56 660.62 L14.17 660.62 A14.173 14.173 -180 0 0 0 674.8 L0 683.3 A14.173 14.173 -180 0 0
								 14.17 697.47 Z" class="st4"/>
				</g>
				<path d="M14.17 697.47 L127.56 697.47 A14.173 14.173 -180 0 0 141.73 683.3 L141.73 674.8 A14.173 14.173 -180 0 0
							 127.56 660.62 L14.17 660.62 A14.173 14.173 -180 0 0 0 674.8 L0 683.3 A14.173 14.173 -180 0 0 14.17 697.47
							 Z" class="st31"/>
				<text x="57.22" y="684.45" class="st32" v:langID="2052"><v:paragraph v:horizAlign="1"/><v:tabList/>OP<tspan
							dy="-0.289em" class="st33" v:baseFontSize="18">1</tspan></text>			</g>
			<g id="shape197-371" v:mID="197" v:groupContext="shape" v:layerMember="0" transform="translate(51.0236,-80.7874)">
				<title>动态连接线.175</title>
				<path d="M0 697.47 C10.63 697.47 10.63 684.8 10.63 672.12 C10.63 653.77 10.63 635.41 75.5 633.81 L75.86 633.8"
						class="st34"/>
			</g>
			<g id="shape198-377" v:mID="198" v:groupContext="shape" v:layerMember="0" transform="translate(51.0236,-87.874)">
				<title>动态连接线.176</title>
				<path d="M0 704.56 C18.42 704.56 52.82 704.56 75.5 704.56" class="st35"/>
			</g>
			<g id="shape199-383" v:mID="199" v:groupContext="shape" v:layerMember="0" transform="translate(51.0236,-80.7874)">
				<title>动态连接线.177</title>
				<path d="M0 697.47 C10.63 697.47 10.63 709.77 10.63 722.08 C10.63 740.11 10.63 758.15 75.5 759.72 L75.86 759.73"
						class="st34"/>
			</g>
			<g id="shape200-388" v:mID="200" v:groupContext="shape" v:layerMember="0" transform="translate(277.795,-144.567)">
				<title>动态连接线.178</title>
				<path d="M0 697.47 C10.63 697.47 10.63 710.15 10.63 722.83 C10.63 741.18 10.63 759.53 75.5 761.14 L75.86 761.14"
						class="st34"/>
			</g>
			<g id="shape201-393" v:mID="201" v:groupContext="shape" v:layerMember="0" transform="translate(277.795,-73.7008)">
				<title>动态连接线.179</title>
				<path d="M0 690.39 C18.42 690.39 52.82 690.39 75.5 690.39" class="st35"/>
			</g>
			<g id="shape202-398" v:mID="202" v:groupContext="shape" v:layerMember="0" transform="translate(277.795,-18.4252)">
				<title>动态连接线.180</title>
				<path d="M0 697.47 C10.63 697.47 10.63 685.17 10.63 672.87 C10.63 654.83 10.63 636.8 75.5 635.22 L75.86 635.22"
						class="st34"/>
			</g>
		</g>
	</g>
</svg>
