<svg width="1200" height="720" viewBox="0 0 1200 720" fill="none" xmlns="http://www.w3.org/2000/svg">
  <rect width="1200" height="720" rx="36" fill="#FFFFFF"/>
  <rect x="28" y="28" width="1144" height="664" rx="28" fill="#F8FCFD" stroke="#D7EAF0" stroke-width="4"/>

  <text x="76" y="120" fill="#1A5B6E" font-family="Georgia, 'Times New Roman', serif" font-size="46" font-weight="700">W2T</text>
  <text x="188" y="120" fill="#366E80" font-family="Arial, Helvetica, sans-serif" font-size="30" font-weight="700">LoRA Weights Already Know What They Can Do</text>

  <rect x="76" y="172" width="244" height="320" rx="24" fill="#FFFFFF" stroke="#D3E7EC" stroke-width="3"/>
  <text x="108" y="220" fill="#2A7287" font-family="Arial, Helvetica, sans-serif" font-size="28" font-weight="700">Raw LoRA</text>
  <rect x="108" y="258" width="180" height="54" rx="14" fill="#E9F5F8" stroke="#B9D9E2" stroke-width="2"/>
  <text x="142" y="292" fill="#1E5565" font-family="Consolas, monospace" font-size="26" font-weight="700">A</text>
  <rect x="108" y="334" width="180" height="54" rx="14" fill="#E9F5F8" stroke="#B9D9E2" stroke-width="2"/>
  <text x="142" y="368" fill="#1E5565" font-family="Consolas, monospace" font-size="26" font-weight="700">B</text>
  <text x="108" y="438" fill="#5C7480" font-family="Arial, Helvetica, sans-serif" font-size="24">Many equivalent</text>
  <text x="108" y="468" fill="#5C7480" font-family="Arial, Helvetica, sans-serif" font-size="24">factorizations</text>

  <rect x="396" y="146" width="404" height="372" rx="28" fill="#FFFFFF" stroke="#D3E7EC" stroke-width="3"/>
  <text x="438" y="200" fill="#2A7287" font-family="Arial, Helvetica, sans-serif" font-size="30" font-weight="700">Symmetry-Aware Canonicalization</text>
  <rect x="450" y="246" width="296" height="70" rx="18" fill="#E7F4EE" stroke="#B8D6C7" stroke-width="2"/>
  <text x="535" y="290" fill="#2F6751" font-family="Arial, Helvetica, sans-serif" font-size="28" font-weight="700">QR - SVD</text>

  <rect x="442" y="356" width="124" height="116" rx="18" fill="#F3FBFD" stroke="#C7E2E9" stroke-width="2"/>
  <text x="480" y="404" fill="#1F5869" font-family="Arial, Helvetica, sans-serif" font-size="34" font-weight="700">U</text>
  <text x="466" y="440" fill="#62808C" font-family="Arial, Helvetica, sans-serif" font-size="20">rank-wise</text>

  <rect x="586" y="356" width="124" height="116" rx="18" fill="#F4FBF8" stroke="#C9E0D2" stroke-width="2"/>
  <text x="615" y="404" fill="#2E6952" font-family="Arial, Helvetica, sans-serif" font-size="34" font-weight="700">Sigma</text>
  <text x="607" y="440" fill="#62808C" font-family="Arial, Helvetica, sans-serif" font-size="20">strength</text>

  <rect x="730" y="356" width="124" height="116" rx="18" fill="#F3FBFD" stroke="#C7E2E9" stroke-width="2"/>
  <text x="768" y="404" fill="#1F5869" font-family="Arial, Helvetica, sans-serif" font-size="34" font-weight="700">V</text>
  <text x="760" y="440" fill="#62808C" font-family="Arial, Helvetica, sans-serif" font-size="20">modes</text>

  <rect x="880" y="172" width="244" height="320" rx="24" fill="#FFFFFF" stroke="#D3E7EC" stroke-width="3"/>
  <text x="929" y="220" fill="#2A7287" font-family="Arial, Helvetica, sans-serif" font-size="28" font-weight="700">Weight Tokens</text>
  <rect x="926" y="258" width="154" height="48" rx="24" fill="#EAF5FB"/>
  <rect x="926" y="326" width="154" height="48" rx="24" fill="#EAF5FB"/>
  <rect x="926" y="394" width="154" height="48" rx="24" fill="#EAF5FB"/>
  <text x="962" y="290" fill="#1E5565" font-family="Arial, Helvetica, sans-serif" font-size="22" font-weight="700">ATTR</text>
  <text x="950" y="358" fill="#1E5565" font-family="Arial, Helvetica, sans-serif" font-size="22" font-weight="700">PERF</text>
  <text x="958" y="426" fill="#1E5565" font-family="Arial, Helvetica, sans-serif" font-size="22" font-weight="700">RETR</text>
  <text x="910" y="470" fill="#5C7480" font-family="Arial, Helvetica, sans-serif" font-size="24">Transformer embedding</text>

  <path d="M336 332H380" stroke="#71A8B9" stroke-width="10" stroke-linecap="round"/>
  <path d="M812 332H856" stroke="#71A8B9" stroke-width="10" stroke-linecap="round"/>
  <path d="M372 332L350 316V348L372 332Z" fill="#71A8B9" transform="rotate(180 361 332)"/>
  <path d="M844 332L866 316V348L844 332Z" fill="#71A8B9"/>

  <text x="78" y="600" fill="#5A6E78" font-family="Arial, Helvetica, sans-serif" font-size="24">Canonical LoRA representations support classification, prediction, retrieval, and transfer.</text>
</svg>
